<svg xmlns="http://www.w3.org/2000/svg" width="130" height="40" viewBox="0 0 130 40">
    <g fill="none" fill-rule="evenodd">
        <path fill="#FFF" d="M57.967 16.151c1.469 0 2.683-1.418 2.683-3.149 0-1.758-1.214-3.148-2.683-3.148-1.496 0-2.626 1.39-2.626 3.148 0 1.73 1.13 3.15 2.626 3.15M56.838 5.74c1.412 0 2.71.454 3.812 1.22V.85c0-.19.14-.35.328-.372l4-.475c.221-.026.416.147.416.371v19.063c0 .206-.167.373-.373.373h-3.999c-.206 0-.372-.167-.372-.373v-.96c-.452.851-2.4 1.759-3.812 1.759-3.84 0-6.24-3.234-6.24-7.262 0-4 2.4-7.234 6.24-7.234M77.62 13.002c0-1.617-1.3-2.922-2.908-2.922-1.61 0-2.909 1.305-2.909 2.922 0 1.589 1.3 2.894 2.909 2.894 1.609 0 2.908-1.305 2.908-2.894m4.433 0c0 4-3.36 7.234-7.341 7.234-3.981 0-7.341-3.234-7.341-7.234 0-4.028 3.36-7.262 7.34-7.262 3.982 0 7.342 3.234 7.342 7.262M67.477 34.375V32.9s-1.892-.085-2.711.51c-1.016.71-.677 2.412.96 2.412 1.355 0 1.75-.88 1.75-1.447m4.744-4.142v8.36c0 .209-.168.378-.375.378h-3.993c-.207 0-.375-.17-.375-.377v-.957c-.848 1.135-2.231 1.759-3.982 1.759-.79 0-3.98-.51-4.094-4-.085-2.95 1.892-4.283 3.869-4.624 1.27-.227 3.246-.34 4.207-.368 0-.568-.31-1.787-1.977-1.787-1.566 0-3.008.557-3.801.932-.193.091-.422.002-.504-.195l-1.022-2.433c-.072-.17-.011-.369.146-.465 1.128-.691 3.331-1.556 5.774-1.556 3.022 0 6.127 1.135 6.127 5.333M84.794 38.173c.047.176-.037.36-.2.438-.706.34-2.139.785-3.846.785-4.376 0-4.941-3.347-4.941-7.092v-2.666h-1.892v-4.284h1.892v-2.589c0-.19.14-.35.329-.374l4.022-.502c.223-.028.42.147.42.374v3.091h3.502v4.284h-3.501v2.553c0 2.415 1.063 3.241 2.866 2.523.206-.081.437.04.494.256l.855 3.203zM43.252 5.74c-1.496 0-3.021.823-3.84 1.759V5.977c0-.226-.199-.4-.422-.37l-4.027.543c-.185.026-.323.184-.323.371v12.916c0 .206.167.373.372.373h4.028c.205 0 .372-.167.372-.373v-7.853c.028-1.532 1.384-2.07 2.23-2.07.848 0 2.033.595 2.033 2.155v7.89c0 .225.196.398.417.372l4-.482c.187-.023.327-.182.327-.372v-8.004c0-3.347-1.722-5.333-5.167-5.333M52.229 25.326c-1.468 0-3.022.822-3.84 1.759V21.05c0-.226-.197-.4-.42-.374l-3.99.481c-.19.023-.33.183-.33.374l-.004 17.487c0 .208.168.377.375.377h3.994c.207 0 .375-.169.375-.377v-7.85c.056-1.503 1.383-2.07 2.259-2.07.819 0 2.004.596 2.004 2.156v7.764c0 .208.168.377.375.377h3.994c.207 0 .375-.169.375-.377v-8.36c0-3.32-1.722-5.333-5.167-5.333M39.103 34.3l2.072 2.643c.122.157.102.381-.045.516-1.327 1.213-3.259 1.937-5.166 1.937-4.235 0-7.567-3.234-7.567-7.234s3.219-7.262 7.567-7.262c1.9 0 3.8.743 5.146 1.928.156.138.173.375.038.533l-2.222 2.584c-.125.146-.338.173-.495.064-.777-.535-1.531-.848-2.467-.797-1.553.057-3.05.993-3.05 2.95 0 1.788 1.497 2.865 3.05 2.95 1.045.05 1.893-.34 2.62-.88.164-.121.393-.092.519.068M16.994.322l-3.099.379c-.138.016-.256.11-.303.243L9.455 12.548 5.71 1.974c-.058-.163-.22-.265-.392-.244l-4.992.602c-.24.029-.387.275-.301.5l6.403 16.74c.055.144.192.239.344.239h5.394c.153 0 .29-.095.345-.238L19.794.533c.1-.261-.112-.535-.388-.502l-2.412.291zM23.348 11.783h4.857c-.254-1.334-1.243-1.986-2.485-1.986-1.13 0-2.033.738-2.372 1.986zm.31 2.893c.453 1.021 1.356 1.646 2.316 1.787 1.568.235 2.825-.348 3.419-.813.165-.129.405-.09.526.082l1.395 1.962c.11.155.089.37-.054.496-1.623 1.43-3.121 2.046-5.54 2.046-3.699 0-6.833-3.234-6.833-7.234s3.134-7.261 6.833-7.261c3.727 0 6.579 2.95 6.579 6.95 0 .68-.028 1.333-.141 1.985h-8.5z" transform="translate(0 .303)"/>
        <path fill="#00D7AA" d="M15.942 36.361c-1.82 0-3.358-1.479-3.358-3.308 0-1.843 1.537-3.322 3.358-3.322 1.821 0 3.358 1.48 3.358 3.322 0 1.83-1.537 3.308-3.358 3.308m7.569-4.424c-.44.026-1.124.285-1.124 1.284v2.572c0 .056-.042.103-.097.11l-1.929.233c-.083.01-.157-.056-.157-.14V30.37c0-.086.064-.158.149-.168l2.015-.243c.01-.001.02.007.02.017v.56c.193-.273.968-.805 1.781-.805.163 0 .33.017.485.043l.004.002c.004 0 .006.004.01.006-.033-.559-.09-1.079-.192-1.4-.27-.86-.955-1.544-1.852-1.75-1.707-.392-4.6-.766-8.286-.766-5.033 0-9.636.8-10.281 3.082-.328 1.158-.882 4.802-.33 7.203.167.725.61 1.24 1.172 1.591v-7.346c0-.097.073-.18.17-.192l1.797-.217c.115-.013.216.077.216.193v.355c.207-.39 1.098-.804 1.743-.804 1.757 0 2.855 1.48 2.855 3.322 0 1.83-1.098 3.308-2.855 3.308-.645 0-1.24-.194-1.743-.545v2.543c1.717.067 4.757.103 7.056.035 2.33-.07 4.994-.233 7.899-.551 1.08-.119 1.964-.917 2.197-1.983.19-.871.378-2.052.455-3.519l.004-.155c-.29-.126-.629-.285-1.182-.25" transform="translate(0 .303)"/>
        <path fill="#00D7AA" d="M8.309 34.48c.685 0 1.201-.636 1.201-1.44 0-.792-.516-1.44-1.201-1.44-.672 0-1.227.648-1.227 1.44 0 .804.555 1.44 1.227 1.44M15.942 31.716c-.736 0-1.33.597-1.33 1.337 0 .726.594 1.323 1.33 1.323.736 0 1.33-.597 1.33-1.323 0-.74-.594-1.337-1.33-1.337" transform="translate(0 .303)"/>
        <path fill="#1C1E2E" d="M91.427 5.158c-.094-.28-.35-.545-.706-.804.327.25.575.514.706.804M126.987 21.062l.001-.004-.002.008.001-.004" transform="translate(0 .303)"/>
        <path fill="#20A387" d="M91.458 5.507c.02-.12.007-.235-.031-.35-.13-.288-.379-.552-.706-.803-.481-.348-1.14-.685-1.82-1.031-.451-.23-.925-.473-1.384-.737-.206-.118-.408-.241-.603-.369l.662.691c1.29 1.342 2.67 2.78 3.617 4.06l.043-.243c.102-.575.18-.998.222-1.218M122.362 2.48c-.276-.104-1.01-.27-1.644-.404.147.088.3.21.456.365 2.394 2.363 5.727 12.176 5.889 18.011.005.206-.022.408-.075.606v.004l-.002.004c-.031.116-.072.232-.124.346l2.788 2.178.004.003c.033-.145.048-.292.044-.442-.18-6.511-4.099-19.455-7.336-20.672" transform="translate(0 .303)"/>
        <path fill="#1C1E2E" d="M90.31 26.19c-.042-.019-.087-.035-.127-.056.04.02.085.037.127.056z" transform="translate(0 .303)"/>
        <path fill="#1C1E2E" d="M126.536 21.953c-.613.799-1.76 1.525-3.434 2.169-3.97 1.527-11.135 2.652-19.166 3.008-1.508.067-3.11.106-4.667.106-3.602 0-6.976-.212-8.467-.794-.198-.077-.365-.16-.492-.252-.042-.019-.087-.035-.127-.056.126.175.254.345.384.503 1.149 1.405 2.394 2.154 2.578 2.232 1.247.525 4.523.802 8.628.803 10.08.035 25.509-1.645 27.654-5.48l-.434-.32-2.457-1.92zM126.301 20.522c-.007.135-.027.27-.067.405.04-.135.06-.27.067-.405M126.284 20.714l-.004.027.004-.027" transform="translate(0 .303)"/>
        <path fill="#1C1E2E" d="M126.233 20.932c.02-.063.035-.126.047-.191l.004-.027c.01-.063.017-.127.018-.192-.008.135-.028.27-.068.405l-.001.005M126.233 20.932L126.233 20.932z" transform="translate(0 .303)"/>
        <path fill="#38C39D" d="M90.797 25.61c.882.632 5.864 1.077 13.106.756 7.954-.352 15.03-1.458 18.927-2.958 1.368-.526 2.954-1.338 3.368-2.377.013-.033.024-.066.035-.099l.001-.005c.04-.135.06-.27.067-.405 0-.016.002-.032.001-.049-.143-5.163-2.696-12.716-4.621-16.079-.22-.381-.723-1.33-1.462-1.37-1.26-.068-1.98 2.07-2.974 4.934-1.478 4.258-3.503 10.088-8.816 13.08-2.28 1.284-4.94 1.924-7.61 1.924-2.79 0-5.59-.698-7.971-2.091-.18-.105-.36-.223-.552-.36l-.064-.045c-.096-.07-.19-.14-.282-.213-.582-.458-1.088-.976-1.595-1.511-.067.825-.118 1.61-.146 2.334-.087 2.244.038 3.913.498 4.457.022.026.054.052.09.077" transform="translate(0 .303)"/>
        <path fill="#1C1E2E" d="M126.234 20.927l-.001.005.001-.005M126.233 20.932c-.01.033-.022.066-.035.099.013-.033.024-.066.035-.099z" transform="translate(0 .303)"/>
        <path fill="#00D7AA" d="M92.076 19.363c.1.088.202.173.307.256.104.084.21.164.32.243.186.134.36.247.529.346 4.433 2.594 10.39 2.66 14.824.162 5.06-2.85 7.03-8.522 8.468-12.663.881-2.538 1.584-4.553 2.783-5.213-2.98-.525-10.197-1.248-17.25-1.708C93.186.206 88.14.255 86.57.58c-.16.033-.218.234-.098.345.731.675 1.767 1.203 2.773 1.716 1.648.84 3.204 1.634 2.961 3.002v.004c-.118.627-.237 1.285-.355 1.965-.52 2.988-1.023 6.4-1.339 9.452-.023.223-.044.443-.065.662l.262.278c.435.46.885.937 1.367 1.359M116.613 36.75c-.076.02-.15.035-.226.047-.458.07-.905-.028-1.279-.281-.488-.331-.801-.882-.882-1.55-.165-1.358.693-2.73 1.911-3.058.536-.144 1.07-.061 1.504.234.488.33.802.881.883 1.55.164 1.357-.693 2.729-1.911 3.057" transform="translate(0 .303)"/>
        <path fill="#008A74" d="M121.071 34.51l.004.041.007.102.002.051.003.093v.056c0 .029 0 .057-.002.086l-.003.06-.004.082-.006.063-.008.079-.01.064-.01.076-.012.066-.012.065-.001.005c-.015.07-.032.14-.05.208l-.011.039c-.02.067-.04.133-.063.199l-.004.012-.01.027c-.018.046-.035.091-.054.136l-.016.04c-.024.055-.049.11-.075.163l-.003.007-.013.024c-.02.04-.042.081-.065.121l-.025.045-.071.118-.013.022-.005.007c-.03.047-.062.093-.095.139l-.026.034c-.026.035-.052.07-.08.104l-.017.022-.013.015c-.038.046-.077.091-.117.135l-.01.01c-.038.04-.077.079-.116.117l-.018.017c-.008.009-.017.017-.027.025l-.04.037c-.02.016-.038.033-.057.05-.015.01-.029.023-.042.035l-.061.047c-.014.01-.027.022-.042.032l-.068.049-.037.025-.006.005-.016.01c-.044.029-.087.055-.132.082l-.04.022c-.05.029-.102.057-.155.082l-.014.006c-.049.023-.099.044-.15.064l-.042.017c-.055.021-.111.04-.168.058-.055.016-.11.03-.166.042l-.033.008c-.054.01-.107.02-.16.028l-.028.003c-.05.007-.099.011-.148.014l-.02.002c-.053.003-.105.003-.157.002h-.034c-.05-.003-.1-.005-.15-.01l-.005-.001-.015-.002c-.048-.005-.095-.013-.142-.021l-.031-.006c-.05-.01-.098-.02-.147-.034l-.027-.008-.06-.018-.085-.028-.916-.334c.062-.013.124-.024.186-.04 1.576-.426 2.689-2.178 2.48-3.906-.072-.592-.298-1.129-.639-1.557l.878.32c.777.284 1.374 1.015 1.52 2.006l.018.144" transform="translate(0 .303)"/>
        <path fill="#00D7AA" d="M100.93 38.14c-.075.02-.15.036-.225.047-.458.07-.905-.027-1.28-.28-.488-.332-.801-.882-.882-1.551-.164-1.357.694-2.729 1.912-3.057.535-.145 1.07-.062 1.504.233.488.332.801.882.882 1.55.164 1.358-.693 2.73-1.91 3.058" transform="translate(0 .303)"/>
        <path fill="#008A74" d="M105.389 35.9l.003.041.008.103.002.05.003.093v.056c-.001.03 0 .058-.002.087 0 .02-.002.04-.003.059l-.005.083-.006.062-.008.08-.009.063-.01.076-.013.066-.011.065-.002.006c-.014.07-.031.139-.05.208l-.01.038c-.02.067-.04.134-.064.2l-.004.012-.01.026c-.017.046-.035.092-.054.137l-.016.04c-.024.054-.048.109-.075.162 0 .003-.002.005-.003.008l-.013.023c-.02.041-.042.082-.064.122l-.025.044c-.023.04-.047.08-.072.118l-.013.023-.004.006c-.031.048-.063.094-.096.14l-.025.034c-.026.035-.053.07-.08.103l-.017.022c-.005.006-.01.01-.013.015-.038.047-.077.092-.118.135l-.01.01c-.038.04-.076.08-.116.117l-.017.018-.027.024-.04.037-.058.05-.042.035-.06.047-.042.033-.069.048-.037.026-.006.005-.016.01c-.043.028-.087.055-.132.081l-.039.023c-.05.028-.103.056-.156.081l-.013.007c-.05.023-.1.044-.15.064l-.043.017c-.055.02-.11.04-.168.057-.055.017-.11.03-.165.043l-.034.007c-.053.012-.107.02-.16.029l-.028.003c-.05.006-.098.011-.147.014l-.021.001c-.053.003-.105.004-.157.003l-.034-.001c-.05-.002-.1-.005-.149-.01h-.006l-.014-.003c-.048-.005-.095-.012-.142-.02l-.032-.006c-.049-.01-.098-.021-.146-.035l-.028-.007-.06-.018c-.029-.01-.057-.019-.085-.03l-.915-.333c.062-.012.124-.023.186-.04 1.576-.425 2.688-2.177 2.48-3.905-.072-.592-.299-1.13-.64-1.557l.879.32c.777.284 1.373 1.015 1.52 2.006.007.048.013.095.018.143M126.536 21.953c-.613.799-1.76 1.525-3.434 2.169-3.97 1.527-11.135 2.652-19.166 3.008-1.508.067-3.11.106-4.667.106-3.602 0-6.976-.212-8.467-.794-.198-.077-.365-.16-.492-.252-.042-.019-.087-.035-.127-.056.126.175.254.345.384.503 1.149 1.405 2.394 2.154 2.578 2.232 1.247.525 4.523.802 8.628.803 10.08.035 25.509-1.645 27.654-5.48l-.434-.32-2.457-1.92z" transform="translate(0 .303)"/>
    </g>
</svg>
