<?xml version="1.0" encoding="UTF-8"?>
<svg width="106px" height="106px" viewBox="0 0 106 106" version="1.1" xmlns="http://www.w3.org/2000/svg" xmlns:xlink="http://www.w3.org/1999/xlink">
    <!-- Generator: Sketch 55.2 (78181) - https://sketchapp.com -->
    <title>Artboard Copy@1.5x</title>
    <desc>Created with Sketch.</desc>
    <g id="Artboard-Copy" stroke="none" stroke-width="1" fill="none" fill-rule="evenodd">
        <g id="Group" transform="translate(3.000000, 3.000000)">
            <circle id="Oval-Copy-4" stroke="#EA1D76" stroke-width="3" fill="#FFFFFF" stroke-linecap="round" stroke-linejoin="round" cx="50" cy="50" r="50"></circle>
            <path d="M63.5169811,55 L54.4830189,55 C52.010566,55 50,57.0239316 50,59.5128205 L50,66.4871795 C50,68.9760684 52.010566,71 54.4830189,71 L63.5169811,71 C65.989434,71 68,68.9760684 68,66.4871795 L68,59.5128205 C68,57.0239316 65.989434,55 63.5169811,55 Z M64.7396226,66.4871795 C64.7396226,67.1709402 64.1826415,67.7179487 63.5169811,67.7179487 L54.4830189,67.7179487 C53.8037736,67.7179487 53.2603774,67.157265 53.2603774,66.4871795 L53.2603774,59.5128205 C53.2603774,58.8290598 53.8173585,58.2820513 54.4830189,58.2820513 L63.5169811,58.2820513 C64.1962264,58.2820513 64.7396226,58.842735 64.7396226,59.5128205 L64.7396226,66.4871795 Z" id="Shape" fill="#EA1D76" fill-rule="nonzero"></path>
            <path d="M82,42.330681 C82,42.0407208 81.9325705,41.7645682 81.7842256,41.5160309 L71.9664896,23.8422654 C71.6832857,23.3313831 71.1438496,23 70.5639559,23 L27.4225582,23 C26.8426645,23 26.3032284,23.3175755 26.0200245,23.8422654 L16.2157744,41.5160309 C16.0809154,41.7645682 16,42.0407208 16,42.330681 C16,46.2934706 18.3330609,49.6901474 21.6640785,51.195179 L21.6640785,80.3430845 C21.6640785,81.254388 22.3923171,82 23.2823866,82 L32.223539,82 C32.2370249,82 32.2505108,82 32.2639967,82 L44.8058848,82 C44.8193707,82 44.8328566,82 44.8463425,82 L74.7041275,82 C75.594197,82 76.3224356,81.254388 76.3224356,80.3430845 L76.3224356,51.4022935 C76.3224356,51.3332553 76.3224356,51.2780248 76.3089497,51.2227943 C79.6534532,49.7177627 82,46.3072783 82,42.330681 Z M28.3665713,26.3276387 L69.6199428,26.3276387 L77.2934205,40.1490756 L20.7065795,40.1490756 L28.3665713,26.3276387 Z M62.9713935,43.449099 C62.4589293,46.4315469 59.910094,48.6959981 56.8487944,48.6959981 C53.7874949,48.6959981 51.2386596,46.4315469 50.7261953,43.449099 L62.9713935,43.449099 Z M47.2872906,43.449099 C46.7748263,46.4315469 44.225991,48.6959981 41.1646915,48.6959981 C38.1033919,48.6959981 35.5545566,46.4315469 35.0286065,43.449099 L47.2872906,43.449099 Z M19.3445035,43.449099 L31.6031876,43.449099 C31.0907233,46.4315469 28.5284021,48.6959981 25.4671026,48.6959981 C22.405803,48.7098058 19.8569677,46.4315469 19.3445035,43.449099 Z M43.1875766,78.686169 L33.8823049,78.686169 L33.8823049,60.805289 C33.8823049,59.5073719 34.9072333,58.4441844 36.188394,58.4441844 L40.8949734,58.4441844 C42.1626481,58.4441844 43.2010625,59.4935642 43.2010625,60.805289 L43.2010625,78.686169 L43.1875766,78.686169 Z M73.0858194,78.686169 L46.4241929,78.686169 L46.4241929,60.805289 C46.4241929,57.6847648 43.9427871,55.1303534 40.8814875,55.1303534 L36.1749081,55.1303534 C33.1270944,55.1303534 30.6322027,57.6709572 30.6322027,60.805289 L30.6322027,78.6999766 L24.9006947,78.6999766 L24.9006947,52.0098292 C25.0894973,52.0236368 25.2783,52.0236368 25.4671026,52.0236368 C28.7306906,52.0236368 31.6166735,50.3252984 33.315897,47.7432717 C35.0151206,50.3252984 37.9011034,52.0236368 41.1646915,52.0236368 C44.4282795,52.0236368 47.3007765,50.3252984 49.0134859,47.7432717 C50.7127094,50.3252984 53.5986923,52.0236368 56.8487944,52.0236368 C60.1123825,52.0236368 62.9848794,50.3252984 64.684103,47.7432717 C66.3833265,50.3252984 69.2693094,52.0236368 72.5328974,52.0236368 C72.7217,52.0236368 72.8970168,52.0098292 73.0858194,52.0098292 L73.0858194,78.686169 L73.0858194,78.686169 Z M72.5328974,48.7098058 C69.4715979,48.7098058 66.9227626,46.4453546 66.4102983,43.4629066 L78.6689824,43.4629066 C78.1430323,46.4315469 75.594197,48.7098058 72.5328974,48.7098058 Z" id="Shape" fill="#EA1D76" fill-rule="nonzero"></path>
        </g>
    </g>
</svg>